# xmcd
#
# Track frame offsets: 
#        150
#        14315
#        24755
#        33842
#        43000
#        54355
#        63592
#        73735
#        86015
#        95832
#        106477
#        114597
#        129132
#        141852
#        154120
#        163122
#        175862
#        184892
#        196220
#        206077
#        216777
#        229550
#        241997
#        255967
#        269492
#        280937
#        290432
#        305130
#        316480
#        326887
#
# Disc length: 4499 seconds
#
# Revision: 7
# Processed by: cddbd v1.5.2PL0 Copyright (c) Steve Scherf et al.
# Submitted via: ExactAudioCopy v0.99pb4
#
DISCID=b711911e
DTITLE=Elvis Presley - The Definitive - Love Album
DYEAR=1987
DGENRE=Love
TTITLE0=Are You Lonesome Tonight?
TTITLE1=Kiss Me Quick
TTITLE2=Love Letters
TTITLE3=Fever
TTITLE4=Sentimental Me
TTITLE5=Don't
TTITLE6=There's Always Me
TTITLE7=Love Me Tender
TTITLE8=My Boy
TTITLE9=Spanish Eyes
TTITLE10=She Wears My Ring
TTITLE11=It's Now Or Never
TTITLE12=Until It's Time For You To Go
TTITLE13=Solitaire
TTITLE14=You Don't Have To Say You Love Me
TTITLE15=The Last Farewell
TTITLE16=And I Love You So
TTITLE17=Separate Ways
TTITLE18=I Miss You
TTITLE19=I'll Never Fall In Love Again
TTITLE20=It's Impossible
TTITLE21=Let It Be Me
TTITLE22=Bridge Over Troubled Water
TTITLE23=I Just Can't Help Believin'
TTITLE24=My Way
TTITLE25=Hurt
TTITLE26=You've Lost That Lovin' Feelin'
TTITLE27=The Wonder Of You
TTITLE28=Release Me
TTITLE29=Yesterday
EXTD=I'mNeverGonnaFallInLoveAgain YEAR: 1987
EXTT0=
EXTT1=
EXTT2=
EXTT3=
EXTT4=
EXTT5=
EXTT6=
EXTT7=
EXTT8=
EXTT9=
EXTT10=
EXTT11=
EXTT12=
EXTT13=
EXTT14=
EXTT15=
EXTT16=
EXTT17=
EXTT18=
EXTT19=
EXTT20=
EXTT21=
EXTT22=
EXTT23=
EXTT24=
EXTT25=
EXTT26=
EXTT27=
EXTT28=
EXTT29=
PLAYORDER=
